<mxfile host="Electron" agent="Mozilla/5.0 (X11; Linux x86_64) AppleWebKit/537.36 (KHTML, like Gecko) draw.io/27.0.9 Chrome/134.0.6998.205 Electron/35.4.0 Safari/537.36" version="27.0.9">
  <diagram name="PÃ¡gina-1" id="K75mUKTmmtbrBa8cdulp">
    <mxGraphModel dx="1592" dy="764" grid="1" gridSize="10" guides="1" tooltips="1" connect="1" arrows="1" fold="1" page="1" pageScale="1" pageWidth="827" pageHeight="1169" math="0" shadow="0">
      <root>
        <mxCell id="0" />
        <mxCell id="1" parent="0" />
        <mxCell id="0K_q89xMAmmCURFrVY3s-1" value="Robot" style="swimlane;fontStyle=0;childLayout=stackLayout;horizontal=1;startSize=30;horizontalStack=0;resizeParent=1;resizeParentMax=0;resizeLast=0;collapsible=1;marginBottom=0;whiteSpace=wrap;html=1;" vertex="1" parent="1">
          <mxGeometry x="124" y="260" width="140" height="150" as="geometry" />
        </mxCell>
        <mxCell id="0K_q89xMAmmCURFrVY3s-2" value="posicion_inicial" style="text;strokeColor=none;fillColor=none;align=left;verticalAlign=middle;spacingLeft=4;spacingRight=4;overflow=hidden;points=[[0,0.5],[1,0.5]];portConstraint=eastwest;rotatable=0;whiteSpace=wrap;html=1;" vertex="1" parent="0K_q89xMAmmCURFrVY3s-1">
          <mxGeometry y="30" width="140" height="30" as="geometry" />
        </mxCell>
        <mxCell id="0K_q89xMAmmCURFrVY3s-3" value="posicion_actual" style="text;strokeColor=none;fillColor=none;align=left;verticalAlign=middle;spacingLeft=4;spacingRight=4;overflow=hidden;points=[[0,0.5],[1,0.5]];portConstraint=eastwest;rotatable=0;whiteSpace=wrap;html=1;" vertex="1" parent="0K_q89xMAmmCURFrVY3s-1">
          <mxGeometry y="60" width="140" height="30" as="geometry" />
        </mxCell>
        <mxCell id="0K_q89xMAmmCURFrVY3s-6" value="posicion_destino" style="text;strokeColor=none;fillColor=none;align=left;verticalAlign=middle;spacingLeft=4;spacingRight=4;overflow=hidden;points=[[0,0.5],[1,0.5]];portConstraint=eastwest;rotatable=0;whiteSpace=wrap;html=1;" vertex="1" parent="0K_q89xMAmmCURFrVY3s-1">
          <mxGeometry y="90" width="140" height="30" as="geometry" />
        </mxCell>
        <mxCell id="0K_q89xMAmmCURFrVY3s-4" value="ha_llegado (FIN)" style="text;strokeColor=none;fillColor=none;align=left;verticalAlign=middle;spacingLeft=4;spacingRight=4;overflow=hidden;points=[[0,0.5],[1,0.5]];portConstraint=eastwest;rotatable=0;whiteSpace=wrap;html=1;" vertex="1" parent="0K_q89xMAmmCURFrVY3s-1">
          <mxGeometry y="120" width="140" height="30" as="geometry" />
        </mxCell>
        <mxCell id="0K_q89xMAmmCURFrVY3s-7" value="MOVER_ROBOT(posicion_actual. lista_coordenadas_recorrido)&lt;br&gt;&lt;br&gt;modifica la posicion actual" style="shape=parallelogram;perimeter=parallelogramPerimeter;whiteSpace=wrap;html=1;fixedSize=1;" vertex="1" parent="1">
          <mxGeometry x="90" y="480" width="190" height="120" as="geometry" />
        </mxCell>
        <mxCell id="0K_q89xMAmmCURFrVY3s-13" style="edgeStyle=orthogonalEdgeStyle;rounded=0;orthogonalLoop=1;jettySize=auto;html=1;exitX=0.5;exitY=1;exitDx=0;exitDy=0;entryX=0.5;entryY=0;entryDx=0;entryDy=0;" edge="1" parent="1" source="0K_q89xMAmmCURFrVY3s-10" target="0K_q89xMAmmCURFrVY3s-19">
          <mxGeometry relative="1" as="geometry">
            <mxPoint x="445" y="430" as="targetPoint" />
          </mxGeometry>
        </mxCell>
        <mxCell id="0K_q89xMAmmCURFrVY3s-10" value="DETERMINAR_RECORRIDO(&lt;br&gt;&lt;span style=&quot;text-align: left;&quot;&gt;posicion_inicial,&amp;nbsp;&lt;/span&gt;&lt;span style=&quot;text-align: left;&quot;&gt;posicion_destino&lt;/span&gt;):" style="shape=parallelogram;perimeter=parallelogramPerimeter;whiteSpace=wrap;html=1;fixedSize=1;" vertex="1" parent="1">
          <mxGeometry x="310" y="295" width="270" height="80" as="geometry" />
        </mxCell>
        <mxCell id="0K_q89xMAmmCURFrVY3s-12" style="edgeStyle=orthogonalEdgeStyle;rounded=0;orthogonalLoop=1;jettySize=auto;html=1;exitX=1;exitY=0.5;exitDx=0;exitDy=0;" edge="1" parent="1" source="0K_q89xMAmmCURFrVY3s-3" target="0K_q89xMAmmCURFrVY3s-10">
          <mxGeometry relative="1" as="geometry" />
        </mxCell>
        <mxCell id="0K_q89xMAmmCURFrVY3s-19" value="&lt;div&gt;LISTA_COOR_RECOR&lt;/div&gt;&lt;div&gt;&lt;br&gt;&lt;/div&gt;&lt;div&gt;&lt;span style=&quot;background-color: transparent; color: light-dark(rgb(0, 0, 0), rgb(255, 255, 255));&quot;&gt;coordena1: (x,y)&lt;/span&gt;&lt;/div&gt;&lt;div&gt;coordena2: (x,y)&lt;/div&gt;&lt;div&gt;coordena3: (x,y)&lt;/div&gt;&lt;div&gt;...&lt;/div&gt;&lt;div&gt;coordenaN: (x,y)&lt;/div&gt;&lt;div&gt;&lt;br&gt;&lt;/div&gt;" style="shape=internalStorage;whiteSpace=wrap;html=1;backgroundOutline=1;" vertex="1" parent="1">
          <mxGeometry x="372.5" y="435" width="145" height="130" as="geometry" />
        </mxCell>
        <mxCell id="0K_q89xMAmmCURFrVY3s-21" style="edgeStyle=orthogonalEdgeStyle;rounded=0;orthogonalLoop=1;jettySize=auto;html=1;entryX=0.5;entryY=0;entryDx=0;entryDy=0;" edge="1" parent="1" source="0K_q89xMAmmCURFrVY3s-20" target="0K_q89xMAmmCURFrVY3s-10">
          <mxGeometry relative="1" as="geometry" />
        </mxCell>
        <mxCell id="0K_q89xMAmmCURFrVY3s-20" value="matriz(20x20)&lt;br&gt;coordena1: (x,y)&lt;div&gt;coordena2: (x,y)&lt;/div&gt;&lt;div&gt;coordena3: (x,y)&lt;/div&gt;&lt;div&gt;...&lt;/div&gt;&lt;div&gt;coordenaN: (x,y)&lt;/div&gt;" style="shape=internalStorage;whiteSpace=wrap;html=1;backgroundOutline=1;" vertex="1" parent="1">
          <mxGeometry x="372.5" y="80" width="145" height="140" as="geometry" />
        </mxCell>
        <mxCell id="0K_q89xMAmmCURFrVY3s-37" value="NO" style="edgeStyle=orthogonalEdgeStyle;rounded=0;orthogonalLoop=1;jettySize=auto;html=1;entryX=0;entryY=0.5;entryDx=0;entryDy=0;" edge="1" parent="1" source="0K_q89xMAmmCURFrVY3s-28" target="0K_q89xMAmmCURFrVY3s-7">
          <mxGeometry relative="1" as="geometry">
            <mxPoint y="530" as="targetPoint" />
            <Array as="points">
              <mxPoint x="80" y="430" />
              <mxPoint x="80" y="540" />
            </Array>
          </mxGeometry>
        </mxCell>
        <mxCell id="0K_q89xMAmmCURFrVY3s-38" value="SI" style="edgeStyle=orthogonalEdgeStyle;rounded=0;orthogonalLoop=1;jettySize=auto;html=1;exitX=0.5;exitY=1;exitDx=0;exitDy=0;" edge="1" parent="1" source="0K_q89xMAmmCURFrVY3s-28" target="0K_q89xMAmmCURFrVY3s-39">
          <mxGeometry relative="1" as="geometry">
            <mxPoint y="620" as="targetPoint" />
          </mxGeometry>
        </mxCell>
        <mxCell id="0K_q89xMAmmCURFrVY3s-28" value="==" style="rhombus;whiteSpace=wrap;html=1;" vertex="1" parent="1">
          <mxGeometry x="-40" y="390" width="80" height="80" as="geometry" />
        </mxCell>
        <mxCell id="0K_q89xMAmmCURFrVY3s-33" style="edgeStyle=orthogonalEdgeStyle;rounded=0;orthogonalLoop=1;jettySize=auto;html=1;exitX=0.5;exitY=1;exitDx=0;exitDy=0;entryX=0.5;entryY=0;entryDx=0;entryDy=0;" edge="1" parent="1" source="0K_q89xMAmmCURFrVY3s-30" target="0K_q89xMAmmCURFrVY3s-28">
          <mxGeometry relative="1" as="geometry" />
        </mxCell>
        <mxCell id="0K_q89xMAmmCURFrVY3s-30" value="robot_ha_llegado()" style="shape=parallelogram;perimeter=parallelogramPerimeter;whiteSpace=wrap;html=1;fixedSize=1;" vertex="1" parent="1">
          <mxGeometry x="-60" y="305" width="140" height="60" as="geometry" />
        </mxCell>
        <mxCell id="0K_q89xMAmmCURFrVY3s-31" style="edgeStyle=orthogonalEdgeStyle;rounded=0;orthogonalLoop=1;jettySize=auto;html=1;exitX=0;exitY=0.5;exitDx=0;exitDy=0;entryX=1;entryY=0.5;entryDx=0;entryDy=0;" edge="1" parent="1" source="0K_q89xMAmmCURFrVY3s-3" target="0K_q89xMAmmCURFrVY3s-30">
          <mxGeometry relative="1" as="geometry" />
        </mxCell>
        <mxCell id="0K_q89xMAmmCURFrVY3s-32" style="edgeStyle=orthogonalEdgeStyle;rounded=0;orthogonalLoop=1;jettySize=auto;html=1;entryX=1;entryY=1;entryDx=0;entryDy=0;" edge="1" parent="1" source="0K_q89xMAmmCURFrVY3s-6" target="0K_q89xMAmmCURFrVY3s-30">
          <mxGeometry relative="1" as="geometry" />
        </mxCell>
        <mxCell id="0K_q89xMAmmCURFrVY3s-34" style="edgeStyle=orthogonalEdgeStyle;rounded=0;orthogonalLoop=1;jettySize=auto;html=1;exitX=0.5;exitY=0;exitDx=0;exitDy=0;entryX=0.471;entryY=1.033;entryDx=0;entryDy=0;entryPerimeter=0;" edge="1" parent="1" source="0K_q89xMAmmCURFrVY3s-7" target="0K_q89xMAmmCURFrVY3s-4">
          <mxGeometry relative="1" as="geometry" />
        </mxCell>
        <mxCell id="0K_q89xMAmmCURFrVY3s-36" style="edgeStyle=orthogonalEdgeStyle;rounded=0;orthogonalLoop=1;jettySize=auto;html=1;exitX=0;exitY=0.5;exitDx=0;exitDy=0;entryX=0.947;entryY=0.575;entryDx=0;entryDy=0;entryPerimeter=0;" edge="1" parent="1" source="0K_q89xMAmmCURFrVY3s-19" target="0K_q89xMAmmCURFrVY3s-7">
          <mxGeometry relative="1" as="geometry" />
        </mxCell>
        <mxCell id="0K_q89xMAmmCURFrVY3s-39" value="FIN" style="ellipse;whiteSpace=wrap;html=1;" vertex="1" parent="1">
          <mxGeometry x="-45" y="540" width="90" height="40" as="geometry" />
        </mxCell>
        <mxCell id="0K_q89xMAmmCURFrVY3s-42" style="edgeStyle=orthogonalEdgeStyle;rounded=0;orthogonalLoop=1;jettySize=auto;html=1;exitX=0.5;exitY=1;exitDx=0;exitDy=0;entryX=0.5;entryY=0;entryDx=0;entryDy=0;" edge="1" parent="1" source="0K_q89xMAmmCURFrVY3s-41" target="0K_q89xMAmmCURFrVY3s-1">
          <mxGeometry relative="1" as="geometry" />
        </mxCell>
        <mxCell id="0K_q89xMAmmCURFrVY3s-41" value="Capturar_posiciones()&lt;br&gt;leer(posicion_inicial)&lt;div&gt;leer(posicion_destino)&lt;/div&gt;" style="shape=hexagon;perimeter=hexagonPerimeter2;whiteSpace=wrap;html=1;fixedSize=1;" vertex="1" parent="1">
          <mxGeometry x="100" y="130" width="170" height="70" as="geometry" />
        </mxCell>
      </root>
    </mxGraphModel>
  </diagram>
</mxfile>
